ISO-10303-21;
HEADER;
/* Generated by software containing ST-Developer
 * from STEP Tools, Inc. (www.steptools.com) 
 */

FILE_DESCRIPTION(
/* description */ (''),
/* implementation_level */ '2;1');

FILE_NAME(
/* name */ 'irxpansionCASE.step',
/* time_stamp */ '2026-09-23T19:00:02+02:00',
/* author */ (''),
/* organization */ (''),
/* preprocessor_version */ 'ST-DEVELOPER v20.1',
/* originating_system */ 'Autodesk Translation Framework v15.8.0.0',
/* authorisation */ '');

FILE_SCHEMA (('AUTOMOTIVE_DESIGN { 1 0 10303 214 3 1 1 }'));
ENDSEC;

DATA;
#10=MECHANICAL_DESIGN_GEOMETRIC_PRESENTATION_REPRESENTATION('',(#13),#1037);
#11=SHAPE_REPRESENTATION_RELATIONSHIP('SRR','None',#1043,#12);
#12=ADVANCED_BREP_SHAPE_REPRESENTATION('',(#14),#1036);
#13=STYLED_ITEM('',(#1052),#14);
#14=MANIFOLD_SOLID_BREP('Body1',#647);
#15=FACE_BOUND('',#80,.T.);
#16=FACE_BOUND('',#89,.T.);
#17=FACE_BOUND('',#90,.T.);
#18=FACE_BOUND('',#101,.T.);
#19=FACE_BOUND('',#102,.T.);
#20=CIRCLE('',#660,1.00000000000001);
#21=CIRCLE('',#661,1.00000000000001);
#22=CIRCLE('',#663,1.49999999999999);
#23=CIRCLE('',#664,1.49999999999999);
#24=CIRCLE('',#668,1.5);
#25=CIRCLE('',#671,0.999999999999996);
#26=CIRCLE('',#672,0.999999999999996);
#27=CIRCLE('',#675,1.5);
#28=CYLINDRICAL_SURFACE('',#659,1.00000000000001);
#29=CYLINDRICAL_SURFACE('',#662,1.49999999999999);
#30=CYLINDRICAL_SURFACE('',#670,0.999999999999996);
#31=CYLINDRICAL_SURFACE('',#674,1.5);
#32=FACE_OUTER_BOUND('',#65,.T.);
#33=FACE_OUTER_BOUND('',#66,.T.);
#34=FACE_OUTER_BOUND('',#67,.T.);
#35=FACE_OUTER_BOUND('',#68,.T.);
#36=FACE_OUTER_BOUND('',#69,.T.);
#37=FACE_OUTER_BOUND('',#70,.T.);
#38=FACE_OUTER_BOUND('',#71,.T.);
#39=FACE_OUTER_BOUND('',#72,.T.);
#40=FACE_OUTER_BOUND('',#73,.T.);
#41=FACE_OUTER_BOUND('',#74,.T.);
#42=FACE_OUTER_BOUND('',#75,.T.);
#43=FACE_OUTER_BOUND('',#76,.T.);
#44=FACE_OUTER_BOUND('',#77,.T.);
#45=FACE_OUTER_BOUND('',#78,.T.);
#46=FACE_OUTER_BOUND('',#79,.T.);
#47=FACE_OUTER_BOUND('',#81,.T.);
#48=FACE_OUTER_BOUND('',#82,.T.);
#49=FACE_OUTER_BOUND('',#83,.T.);
#50=FACE_OUTER_BOUND('',#84,.T.);
#51=FACE_OUTER_BOUND('',#85,.T.);
#52=FACE_OUTER_BOUND('',#86,.T.);
#53=FACE_OUTER_BOUND('',#87,.T.);
#54=FACE_OUTER_BOUND('',#88,.T.);
#55=FACE_OUTER_BOUND('',#91,.T.);
#56=FACE_OUTER_BOUND('',#92,.T.);
#57=FACE_OUTER_BOUND('',#93,.T.);
#58=FACE_OUTER_BOUND('',#94,.T.);
#59=FACE_OUTER_BOUND('',#95,.T.);
#60=FACE_OUTER_BOUND('',#96,.T.);
#61=FACE_OUTER_BOUND('',#97,.T.);
#62=FACE_OUTER_BOUND('',#98,.T.);
#63=FACE_OUTER_BOUND('',#99,.T.);
#64=FACE_OUTER_BOUND('',#100,.T.);
#65=EDGE_LOOP('',(#409,#410,#411,#412));
#66=EDGE_LOOP('',(#413,#414,#415,#416));
#67=EDGE_LOOP('',(#417,#418,#419,#420));
#68=EDGE_LOOP('',(#421,#422,#423,#424));
#69=EDGE_LOOP('',(#425,#426,#427,#428));
#70=EDGE_LOOP('',(#429,#430,#431,#432));
#71=EDGE_LOOP('',(#433,#434,#435,#436,#437));
#72=EDGE_LOOP('',(#438,#439,#440,#441));
#73=EDGE_LOOP('',(#442,#443,#444,#445,#446));
#74=EDGE_LOOP('',(#447,#448,#449,#450));
#75=EDGE_LOOP('',(#451,#452,#453,#454));
#76=EDGE_LOOP('',(#455,#456,#457,#458));
#77=EDGE_LOOP('',(#459,#460,#461,#462));
#78=EDGE_LOOP('',(#463,#464,#465,#466));
#79=EDGE_LOOP('',(#467,#468,#469,#470,#471,#472,#473,#474,#475,#476,#477,
#478,#479,#480,#481,#482));
#80=EDGE_LOOP('',(#483,#484,#485,#486));
#81=EDGE_LOOP('',(#487,#488,#489,#490));
#82=EDGE_LOOP('',(#491,#492,#493,#494));
#83=EDGE_LOOP('',(#495,#496,#497,#498));
#84=EDGE_LOOP('',(#499,#500,#501,#502));
#85=EDGE_LOOP('',(#503,#504,#505,#506));
#86=EDGE_LOOP('',(#507));
#87=EDGE_LOOP('',(#508,#509,#510,#511,#512,#513));
#88=EDGE_LOOP('',(#514,#515,#516,#517,#518,#519,#520,#521,#522,#523,#524,
#525,#526,#527,#528,#529));
#89=EDGE_LOOP('',(#530));
#90=EDGE_LOOP('',(#531));
#91=EDGE_LOOP('',(#532,#533,#534,#535));
#92=EDGE_LOOP('',(#536));
#93=EDGE_LOOP('',(#537,#538,#539,#540));
#94=EDGE_LOOP('',(#541,#542,#543,#544));
#95=EDGE_LOOP('',(#545,#546,#547,#548));
#96=EDGE_LOOP('',(#549,#550,#551,#552));
#97=EDGE_LOOP('',(#553,#554,#555,#556,#557,#558));
#98=EDGE_LOOP('',(#559,#560,#561,#562,#563,#564,#565,#566));
#99=EDGE_LOOP('',(#567,#568,#569,#570,#571,#572));
#100=EDGE_LOOP('',(#573,#574,#575,#576));
#101=EDGE_LOOP('',(#577,#578,#579,#580));
#102=EDGE_LOOP('',(#581,#582,#583,#584));
#103=LINE('',#858,#183);
#104=LINE('',#860,#184);
#105=LINE('',#862,#185);
#106=LINE('',#863,#186);
#107=LINE('',#866,#187);
#108=LINE('',#868,#188);
#109=LINE('',#869,#189);
#110=LINE('',#872,#190);
#111=LINE('',#874,#191);
#112=LINE('',#875,#192);
#113=LINE('',#877,#193);
#114=LINE('',#878,#194);
#115=LINE('',#882,#195);
#116=LINE('',#884,#196);
#117=LINE('',#886,#197);
#118=LINE('',#887,#198);
#119=LINE('',#891,#199);
#120=LINE('',#893,#200);
#121=LINE('',#895,#201);
#122=LINE('',#896,#202);
#123=LINE('',#899,#203);
#124=LINE('',#900,#204);
#125=LINE('',#901,#205);
#126=LINE('',#904,#206);
#127=LINE('',#905,#207);
#128=LINE('',#907,#208);
#129=LINE('',#908,#209);
#130=LINE('',#912,#210);
#131=LINE('',#914,#211);
#132=LINE('',#916,#212);
#133=LINE('',#917,#213);
#134=LINE('',#922,#214);
#135=LINE('',#929,#215);
#136=LINE('',#932,#216);
#137=LINE('',#934,#217);
#138=LINE('',#935,#218);
#139=LINE('',#938,#219);
#140=LINE('',#940,#220);
#141=LINE('',#941,#221);
#142=LINE('',#944,#222);
#143=LINE('',#946,#223);
#144=LINE('',#948,#224);
#145=LINE('',#952,#225);
#146=LINE('',#954,#226);
#147=LINE('',#956,#227);
#148=LINE('',#957,#228);
#149=LINE('',#958,#229);
#150=LINE('',#961,#230);
#151=LINE('',#963,#231);
#152=LINE('',#964,#232);
#153=LINE('',#969,#233);
#154=LINE('',#973,#234);
#155=LINE('',#975,#235);
#156=LINE('',#976,#236);
#157=LINE('',#981,#237);
#158=LINE('',#982,#238);
#159=LINE('',#986,#239);
#160=LINE('',#987,#240);
#161=LINE('',#990,#241);
#162=LINE('',#992,#242);
#163=LINE('',#994,#243);
#164=LINE('',#996,#244);
#165=LINE('',#998,#245);
#166=LINE('',#999,#246);
#167=LINE('',#1000,#247);
#168=LINE('',#1006,#248);
#169=LINE('',#1008,#249);
#170=LINE('',#1010,#250);
#171=LINE('',#1011,#251);
#172=LINE('',#1014,#252);
#173=LINE('',#1016,#253);
#174=LINE('',#1017,#254);
#175=LINE('',#1019,#255);
#176=LINE('',#1020,#256);
#177=LINE('',#1022,#257);
#178=LINE('',#1025,#258);
#179=LINE('',#1026,#259);
#180=LINE('',#1029,#260);
#181=LINE('',#1030,#261);
#182=LINE('',#1032,#262);
#183=VECTOR('',#694,10.);
#184=VECTOR('',#695,10.);
#185=VECTOR('',#696,10.);
#186=VECTOR('',#697,10.);
#187=VECTOR('',#700,10.);
#188=VECTOR('',#701,10.);
#189=VECTOR('',#702,10.);
#190=VECTOR('',#705,10.);
#191=VECTOR('',#706,10.);
#192=VECTOR('',#707,10.);
#193=VECTOR('',#710,10.);
#194=VECTOR('',#711,10.);
#195=VECTOR('',#714,10.);
#196=VECTOR('',#715,10.);
#197=VECTOR('',#716,10.);
#198=VECTOR('',#717,10.);
#199=VECTOR('',#720,10.);
#200=VECTOR('',#721,10.);
#201=VECTOR('',#722,10.);
#202=VECTOR('',#723,10.);
#203=VECTOR('',#726,10.);
#204=VECTOR('',#727,10.);
#205=VECTOR('',#728,10.);
#206=VECTOR('',#731,10.);
#207=VECTOR('',#732,10.);
#208=VECTOR('',#735,10.);
#209=VECTOR('',#736,10.);
#210=VECTOR('',#739,10.);
#211=VECTOR('',#740,10.);
#212=VECTOR('',#741,10.);
#213=VECTOR('',#742,10.);
#214=VECTOR('',#747,1.00000000000001);
#215=VECTOR('',#756,10.);
#216=VECTOR('',#759,10.);
#217=VECTOR('',#760,10.);
#218=VECTOR('',#761,10.);
#219=VECTOR('',#764,10.);
#220=VECTOR('',#765,10.);
#221=VECTOR('',#766,10.);
#222=VECTOR('',#769,10.);
#223=VECTOR('',#770,10.);
#224=VECTOR('',#771,10.);
#225=VECTOR('',#774,10.);
#226=VECTOR('',#775,10.);
#227=VECTOR('',#776,10.);
#228=VECTOR('',#777,10.);
#229=VECTOR('',#778,10.);
#230=VECTOR('',#781,10.);
#231=VECTOR('',#782,10.);
#232=VECTOR('',#783,10.);
#233=VECTOR('',#788,0.999999999999996);
#234=VECTOR('',#793,10.);
#235=VECTOR('',#794,10.);
#236=VECTOR('',#795,10.);
#237=VECTOR('',#802,10.);
#238=VECTOR('',#803,10.);
#239=VECTOR('',#808,10.);
#240=VECTOR('',#809,10.);
#241=VECTOR('',#812,10.);
#242=VECTOR('',#813,10.);
#243=VECTOR('',#814,10.);
#244=VECTOR('',#815,10.);
#245=VECTOR('',#816,10.);
#246=VECTOR('',#817,10.);
#247=VECTOR('',#818,10.);
#248=VECTOR('',#825,10.);
#249=VECTOR('',#826,10.);
#250=VECTOR('',#827,10.);
#251=VECTOR('',#828,10.);
#252=VECTOR('',#831,10.);
#253=VECTOR('',#832,10.);
#254=VECTOR('',#833,10.);
#255=VECTOR('',#836,10.);
#256=VECTOR('',#837,10.);
#257=VECTOR('',#840,10.);
#258=VECTOR('',#843,10.);
#259=VECTOR('',#844,10.);
#260=VECTOR('',#847,10.);
#261=VECTOR('',#848,10.);
#262=VECTOR('',#851,10.);
#263=VERTEX_POINT('',#856);
#264=VERTEX_POINT('',#857);
#265=VERTEX_POINT('',#859);
#266=VERTEX_POINT('',#861);
#267=VERTEX_POINT('',#865);
#268=VERTEX_POINT('',#867);
#269=VERTEX_POINT('',#871);
#270=VERTEX_POINT('',#873);
#271=VERTEX_POINT('',#880);
#272=VERTEX_POINT('',#881);
#273=VERTEX_POINT('',#883);
#274=VERTEX_POINT('',#885);
#275=VERTEX_POINT('',#889);
#276=VERTEX_POINT('',#890);
#277=VERTEX_POINT('',#892);
#278=VERTEX_POINT('',#894);
#279=VERTEX_POINT('',#898);
#280=VERTEX_POINT('',#903);
#281=VERTEX_POINT('',#910);
#282=VERTEX_POINT('',#911);
#283=VERTEX_POINT('',#913);
#284=VERTEX_POINT('',#915);
#285=VERTEX_POINT('',#919);
#286=VERTEX_POINT('',#921);
#287=VERTEX_POINT('',#925);
#288=VERTEX_POINT('',#927);
#289=VERTEX_POINT('',#931);
#290=VERTEX_POINT('',#933);
#291=VERTEX_POINT('',#937);
#292=VERTEX_POINT('',#939);
#293=VERTEX_POINT('',#943);
#294=VERTEX_POINT('',#945);
#295=VERTEX_POINT('',#947);
#296=VERTEX_POINT('',#949);
#297=VERTEX_POINT('',#951);
#298=VERTEX_POINT('',#953);
#299=VERTEX_POINT('',#955);
#300=VERTEX_POINT('',#960);
#301=VERTEX_POINT('',#962);
#302=VERTEX_POINT('',#966);
#303=VERTEX_POINT('',#968);
#304=VERTEX_POINT('',#972);
#305=VERTEX_POINT('',#974);
#306=VERTEX_POINT('',#980);
#307=VERTEX_POINT('',#985);
#308=VERTEX_POINT('',#989);
#309=VERTEX_POINT('',#991);
#310=VERTEX_POINT('',#993);
#311=VERTEX_POINT('',#995);
#312=VERTEX_POINT('',#997);
#313=VERTEX_POINT('',#1004);
#314=VERTEX_POINT('',#1005);
#315=VERTEX_POINT('',#1007);
#316=VERTEX_POINT('',#1009);
#317=VERTEX_POINT('',#1013);
#318=VERTEX_POINT('',#1015);
#319=VERTEX_POINT('',#1024);
#320=VERTEX_POINT('',#1028);
#321=EDGE_CURVE('',#263,#264,#103,.T.);
#322=EDGE_CURVE('',#263,#265,#104,.T.);
#323=EDGE_CURVE('',#266,#265,#105,.T.);
#324=EDGE_CURVE('',#264,#266,#106,.T.);
#325=EDGE_CURVE('',#267,#263,#107,.T.);
#326=EDGE_CURVE('',#267,#268,#108,.T.);
#327=EDGE_CURVE('',#265,#268,#109,.T.);
#328=EDGE_CURVE('',#269,#267,#110,.T.);
#329=EDGE_CURVE('',#269,#270,#111,.T.);
#330=EDGE_CURVE('',#268,#270,#112,.T.);
#331=EDGE_CURVE('',#264,#269,#113,.T.);
#332=EDGE_CURVE('',#270,#266,#114,.T.);
#333=EDGE_CURVE('',#271,#272,#115,.T.);
#334=EDGE_CURVE('',#273,#272,#116,.T.);
#335=EDGE_CURVE('',#274,#273,#117,.T.);
#336=EDGE_CURVE('',#271,#274,#118,.T.);
#337=EDGE_CURVE('',#275,#276,#119,.T.);
#338=EDGE_CURVE('',#275,#277,#120,.T.);
#339=EDGE_CURVE('',#278,#277,#121,.T.);
#340=EDGE_CURVE('',#276,#278,#122,.T.);
#341=EDGE_CURVE('',#279,#275,#123,.T.);
#342=EDGE_CURVE('',#279,#273,#124,.T.);
#343=EDGE_CURVE('',#277,#272,#125,.T.);
#344=EDGE_CURVE('',#280,#279,#126,.T.);
#345=EDGE_CURVE('',#280,#274,#127,.T.);
#346=EDGE_CURVE('',#276,#280,#128,.T.);
#347=EDGE_CURVE('',#271,#278,#129,.T.);
#348=EDGE_CURVE('',#281,#282,#130,.T.);
#349=EDGE_CURVE('',#283,#281,#131,.T.);
#350=EDGE_CURVE('',#284,#283,#132,.T.);
#351=EDGE_CURVE('',#282,#284,#133,.T.);
#352=EDGE_CURVE('',#285,#285,#20,.T.);
#353=EDGE_CURVE('',#285,#286,#134,.T.);
#354=EDGE_CURVE('',#286,#286,#21,.T.);
#355=EDGE_CURVE('',#282,#287,#22,.T.);
#356=EDGE_CURVE('',#288,#284,#23,.T.);
#357=EDGE_CURVE('',#287,#288,#135,.T.);
#358=EDGE_CURVE('',#287,#289,#136,.T.);
#359=EDGE_CURVE('',#290,#288,#137,.T.);
#360=EDGE_CURVE('',#289,#290,#138,.T.);
#361=EDGE_CURVE('',#291,#290,#139,.T.);
#362=EDGE_CURVE('',#291,#292,#140,.T.);
#363=EDGE_CURVE('',#289,#292,#141,.T.);
#364=EDGE_CURVE('',#272,#293,#142,.T.);
#365=EDGE_CURVE('',#294,#293,#143,.T.);
#366=EDGE_CURVE('',#294,#295,#144,.T.);
#367=EDGE_CURVE('',#295,#296,#24,.T.);
#368=EDGE_CURVE('',#296,#297,#145,.T.);
#369=EDGE_CURVE('',#298,#297,#146,.T.);
#370=EDGE_CURVE('',#299,#298,#147,.T.);
#371=EDGE_CURVE('',#299,#281,#148,.T.);
#372=EDGE_CURVE('',#292,#271,#149,.T.);
#373=EDGE_CURVE('',#300,#294,#150,.T.);
#374=EDGE_CURVE('',#301,#300,#151,.T.);
#375=EDGE_CURVE('',#295,#301,#152,.T.);
#376=EDGE_CURVE('',#302,#302,#25,.T.);
#377=EDGE_CURVE('',#302,#303,#153,.T.);
#378=EDGE_CURVE('',#303,#303,#26,.T.);
#379=EDGE_CURVE('',#296,#304,#154,.T.);
#380=EDGE_CURVE('',#305,#304,#155,.T.);
#381=EDGE_CURVE('',#297,#305,#156,.T.);
#382=EDGE_CURVE('',#304,#301,#27,.T.);
#383=EDGE_CURVE('',#306,#305,#157,.T.);
#384=EDGE_CURVE('',#298,#306,#158,.T.);
#385=EDGE_CURVE('',#293,#307,#159,.T.);
#386=EDGE_CURVE('',#307,#291,#160,.T.);
#387=EDGE_CURVE('',#283,#308,#161,.T.);
#388=EDGE_CURVE('',#308,#309,#162,.T.);
#389=EDGE_CURVE('',#309,#310,#163,.T.);
#390=EDGE_CURVE('',#310,#311,#164,.T.);
#391=EDGE_CURVE('',#311,#312,#165,.T.);
#392=EDGE_CURVE('',#312,#306,#166,.T.);
#393=EDGE_CURVE('',#300,#307,#167,.T.);
#394=EDGE_CURVE('',#313,#314,#168,.T.);
#395=EDGE_CURVE('',#314,#315,#169,.T.);
#396=EDGE_CURVE('',#315,#316,#170,.T.);
#397=EDGE_CURVE('',#316,#313,#171,.T.);
#398=EDGE_CURVE('',#315,#317,#172,.T.);
#399=EDGE_CURVE('',#318,#317,#173,.T.);
#400=EDGE_CURVE('',#316,#318,#174,.T.);
#401=EDGE_CURVE('',#310,#314,#175,.T.);
#402=EDGE_CURVE('',#313,#311,#176,.T.);
#403=EDGE_CURVE('',#308,#299,#177,.T.);
#404=EDGE_CURVE('',#319,#318,#178,.T.);
#405=EDGE_CURVE('',#312,#319,#179,.T.);
#406=EDGE_CURVE('',#320,#319,#180,.T.);
#407=EDGE_CURVE('',#309,#320,#181,.T.);
#408=EDGE_CURVE('',#317,#320,#182,.T.);
#409=ORIENTED_EDGE('',*,*,#321,.F.);
#410=ORIENTED_EDGE('',*,*,#322,.T.);
#411=ORIENTED_EDGE('',*,*,#323,.F.);
#412=ORIENTED_EDGE('',*,*,#324,.F.);
#413=ORIENTED_EDGE('',*,*,#325,.F.);
#414=ORIENTED_EDGE('',*,*,#326,.T.);
#415=ORIENTED_EDGE('',*,*,#327,.F.);
#416=ORIENTED_EDGE('',*,*,#322,.F.);
#417=ORIENTED_EDGE('',*,*,#328,.F.);
#418=ORIENTED_EDGE('',*,*,#329,.T.);
#419=ORIENTED_EDGE('',*,*,#330,.F.);
#420=ORIENTED_EDGE('',*,*,#326,.F.);
#421=ORIENTED_EDGE('',*,*,#331,.F.);
#422=ORIENTED_EDGE('',*,*,#324,.T.);
#423=ORIENTED_EDGE('',*,*,#332,.F.);
#424=ORIENTED_EDGE('',*,*,#329,.F.);
#425=ORIENTED_EDGE('',*,*,#333,.T.);
#426=ORIENTED_EDGE('',*,*,#334,.F.);
#427=ORIENTED_EDGE('',*,*,#335,.F.);
#428=ORIENTED_EDGE('',*,*,#336,.F.);
#429=ORIENTED_EDGE('',*,*,#337,.F.);
#430=ORIENTED_EDGE('',*,*,#338,.T.);
#431=ORIENTED_EDGE('',*,*,#339,.F.);
#432=ORIENTED_EDGE('',*,*,#340,.F.);
#433=ORIENTED_EDGE('',*,*,#341,.F.);
#434=ORIENTED_EDGE('',*,*,#342,.T.);
#435=ORIENTED_EDGE('',*,*,#334,.T.);
#436=ORIENTED_EDGE('',*,*,#343,.F.);
#437=ORIENTED_EDGE('',*,*,#338,.F.);
#438=ORIENTED_EDGE('',*,*,#344,.F.);
#439=ORIENTED_EDGE('',*,*,#345,.T.);
#440=ORIENTED_EDGE('',*,*,#335,.T.);
#441=ORIENTED_EDGE('',*,*,#342,.F.);
#442=ORIENTED_EDGE('',*,*,#346,.F.);
#443=ORIENTED_EDGE('',*,*,#340,.T.);
#444=ORIENTED_EDGE('',*,*,#347,.F.);
#445=ORIENTED_EDGE('',*,*,#336,.T.);
#446=ORIENTED_EDGE('',*,*,#345,.F.);
#447=ORIENTED_EDGE('',*,*,#348,.F.);
#448=ORIENTED_EDGE('',*,*,#349,.F.);
#449=ORIENTED_EDGE('',*,*,#350,.F.);
#450=ORIENTED_EDGE('',*,*,#351,.F.);
#451=ORIENTED_EDGE('',*,*,#352,.F.);
#452=ORIENTED_EDGE('',*,*,#353,.T.);
#453=ORIENTED_EDGE('',*,*,#354,.F.);
#454=ORIENTED_EDGE('',*,*,#353,.F.);
#455=ORIENTED_EDGE('',*,*,#355,.F.);
#456=ORIENTED_EDGE('',*,*,#351,.T.);
#457=ORIENTED_EDGE('',*,*,#356,.F.);
#458=ORIENTED_EDGE('',*,*,#357,.F.);
#459=ORIENTED_EDGE('',*,*,#358,.F.);
#460=ORIENTED_EDGE('',*,*,#357,.T.);
#461=ORIENTED_EDGE('',*,*,#359,.F.);
#462=ORIENTED_EDGE('',*,*,#360,.F.);
#463=ORIENTED_EDGE('',*,*,#360,.T.);
#464=ORIENTED_EDGE('',*,*,#361,.F.);
#465=ORIENTED_EDGE('',*,*,#362,.T.);
#466=ORIENTED_EDGE('',*,*,#363,.F.);
#467=ORIENTED_EDGE('',*,*,#343,.T.);
#468=ORIENTED_EDGE('',*,*,#364,.T.);
#469=ORIENTED_EDGE('',*,*,#365,.F.);
#470=ORIENTED_EDGE('',*,*,#366,.T.);
#471=ORIENTED_EDGE('',*,*,#367,.T.);
#472=ORIENTED_EDGE('',*,*,#368,.T.);
#473=ORIENTED_EDGE('',*,*,#369,.F.);
#474=ORIENTED_EDGE('',*,*,#370,.F.);
#475=ORIENTED_EDGE('',*,*,#371,.T.);
#476=ORIENTED_EDGE('',*,*,#348,.T.);
#477=ORIENTED_EDGE('',*,*,#355,.T.);
#478=ORIENTED_EDGE('',*,*,#358,.T.);
#479=ORIENTED_EDGE('',*,*,#363,.T.);
#480=ORIENTED_EDGE('',*,*,#372,.T.);
#481=ORIENTED_EDGE('',*,*,#347,.T.);
#482=ORIENTED_EDGE('',*,*,#339,.T.);
#483=ORIENTED_EDGE('',*,*,#323,.T.);
#484=ORIENTED_EDGE('',*,*,#327,.T.);
#485=ORIENTED_EDGE('',*,*,#330,.T.);
#486=ORIENTED_EDGE('',*,*,#332,.T.);
#487=ORIENTED_EDGE('',*,*,#366,.F.);
#488=ORIENTED_EDGE('',*,*,#373,.F.);
#489=ORIENTED_EDGE('',*,*,#374,.F.);
#490=ORIENTED_EDGE('',*,*,#375,.F.);
#491=ORIENTED_EDGE('',*,*,#376,.F.);
#492=ORIENTED_EDGE('',*,*,#377,.T.);
#493=ORIENTED_EDGE('',*,*,#378,.F.);
#494=ORIENTED_EDGE('',*,*,#377,.F.);
#495=ORIENTED_EDGE('',*,*,#368,.F.);
#496=ORIENTED_EDGE('',*,*,#379,.T.);
#497=ORIENTED_EDGE('',*,*,#380,.F.);
#498=ORIENTED_EDGE('',*,*,#381,.F.);
#499=ORIENTED_EDGE('',*,*,#367,.F.);
#500=ORIENTED_EDGE('',*,*,#375,.T.);
#501=ORIENTED_EDGE('',*,*,#382,.F.);
#502=ORIENTED_EDGE('',*,*,#379,.F.);
#503=ORIENTED_EDGE('',*,*,#381,.T.);
#504=ORIENTED_EDGE('',*,*,#383,.F.);
#505=ORIENTED_EDGE('',*,*,#384,.F.);
#506=ORIENTED_EDGE('',*,*,#369,.T.);
#507=ORIENTED_EDGE('',*,*,#354,.T.);
#508=ORIENTED_EDGE('',*,*,#385,.F.);
#509=ORIENTED_EDGE('',*,*,#364,.F.);
#510=ORIENTED_EDGE('',*,*,#333,.F.);
#511=ORIENTED_EDGE('',*,*,#372,.F.);
#512=ORIENTED_EDGE('',*,*,#362,.F.);
#513=ORIENTED_EDGE('',*,*,#386,.F.);
#514=ORIENTED_EDGE('',*,*,#387,.T.);
#515=ORIENTED_EDGE('',*,*,#388,.T.);
#516=ORIENTED_EDGE('',*,*,#389,.T.);
#517=ORIENTED_EDGE('',*,*,#390,.T.);
#518=ORIENTED_EDGE('',*,*,#391,.T.);
#519=ORIENTED_EDGE('',*,*,#392,.T.);
#520=ORIENTED_EDGE('',*,*,#383,.T.);
#521=ORIENTED_EDGE('',*,*,#380,.T.);
#522=ORIENTED_EDGE('',*,*,#382,.T.);
#523=ORIENTED_EDGE('',*,*,#374,.T.);
#524=ORIENTED_EDGE('',*,*,#393,.T.);
#525=ORIENTED_EDGE('',*,*,#386,.T.);
#526=ORIENTED_EDGE('',*,*,#361,.T.);
#527=ORIENTED_EDGE('',*,*,#359,.T.);
#528=ORIENTED_EDGE('',*,*,#356,.T.);
#529=ORIENTED_EDGE('',*,*,#350,.T.);
#530=ORIENTED_EDGE('',*,*,#352,.T.);
#531=ORIENTED_EDGE('',*,*,#376,.T.);
#532=ORIENTED_EDGE('',*,*,#373,.T.);
#533=ORIENTED_EDGE('',*,*,#365,.T.);
#534=ORIENTED_EDGE('',*,*,#385,.T.);
#535=ORIENTED_EDGE('',*,*,#393,.F.);
#536=ORIENTED_EDGE('',*,*,#378,.T.);
#537=ORIENTED_EDGE('',*,*,#394,.T.);
#538=ORIENTED_EDGE('',*,*,#395,.T.);
#539=ORIENTED_EDGE('',*,*,#396,.T.);
#540=ORIENTED_EDGE('',*,*,#397,.T.);
#541=ORIENTED_EDGE('',*,*,#398,.T.);
#542=ORIENTED_EDGE('',*,*,#399,.F.);
#543=ORIENTED_EDGE('',*,*,#400,.F.);
#544=ORIENTED_EDGE('',*,*,#396,.F.);
#545=ORIENTED_EDGE('',*,*,#390,.F.);
#546=ORIENTED_EDGE('',*,*,#401,.T.);
#547=ORIENTED_EDGE('',*,*,#394,.F.);
#548=ORIENTED_EDGE('',*,*,#402,.T.);
#549=ORIENTED_EDGE('',*,*,#349,.T.);
#550=ORIENTED_EDGE('',*,*,#371,.F.);
#551=ORIENTED_EDGE('',*,*,#403,.F.);
#552=ORIENTED_EDGE('',*,*,#387,.F.);
#553=ORIENTED_EDGE('',*,*,#391,.F.);
#554=ORIENTED_EDGE('',*,*,#402,.F.);
#555=ORIENTED_EDGE('',*,*,#397,.F.);
#556=ORIENTED_EDGE('',*,*,#400,.T.);
#557=ORIENTED_EDGE('',*,*,#404,.F.);
#558=ORIENTED_EDGE('',*,*,#405,.F.);
#559=ORIENTED_EDGE('',*,*,#384,.T.);
#560=ORIENTED_EDGE('',*,*,#392,.F.);
#561=ORIENTED_EDGE('',*,*,#405,.T.);
#562=ORIENTED_EDGE('',*,*,#406,.F.);
#563=ORIENTED_EDGE('',*,*,#407,.F.);
#564=ORIENTED_EDGE('',*,*,#388,.F.);
#565=ORIENTED_EDGE('',*,*,#403,.T.);
#566=ORIENTED_EDGE('',*,*,#370,.T.);
#567=ORIENTED_EDGE('',*,*,#389,.F.);
#568=ORIENTED_EDGE('',*,*,#407,.T.);
#569=ORIENTED_EDGE('',*,*,#408,.F.);
#570=ORIENTED_EDGE('',*,*,#398,.F.);
#571=ORIENTED_EDGE('',*,*,#395,.F.);
#572=ORIENTED_EDGE('',*,*,#401,.F.);
#573=ORIENTED_EDGE('',*,*,#408,.T.);
#574=ORIENTED_EDGE('',*,*,#406,.T.);
#575=ORIENTED_EDGE('',*,*,#404,.T.);
#576=ORIENTED_EDGE('',*,*,#399,.T.);
#577=ORIENTED_EDGE('',*,*,#321,.T.);
#578=ORIENTED_EDGE('',*,*,#331,.T.);
#579=ORIENTED_EDGE('',*,*,#328,.T.);
#580=ORIENTED_EDGE('',*,*,#325,.T.);
#581=ORIENTED_EDGE('',*,*,#337,.T.);
#582=ORIENTED_EDGE('',*,*,#346,.T.);
#583=ORIENTED_EDGE('',*,*,#344,.T.);
#584=ORIENTED_EDGE('',*,*,#341,.T.);
#585=PLANE('',#649);
#586=PLANE('',#650);
#587=PLANE('',#651);
#588=PLANE('',#652);
#589=PLANE('',#653);
#590=PLANE('',#654);
#591=PLANE('',#655);
#592=PLANE('',#656);
#593=PLANE('',#657);
#594=PLANE('',#658);
#595=PLANE('',#665);
#596=PLANE('',#666);
#597=PLANE('',#667);
#598=PLANE('',#669);
#599=PLANE('',#673);
#600=PLANE('',#676);
#601=PLANE('',#677);
#602=PLANE('',#678);
#603=PLANE('',#679);
#604=PLANE('',#680);
#605=PLANE('',#681);
#606=PLANE('',#682);
#607=PLANE('',#683);
#608=PLANE('',#684);
#609=PLANE('',#685);
#610=PLANE('',#686);
#611=PLANE('',#687);
#612=PLANE('',#688);
#613=PLANE('',#689);
#614=ADVANCED_FACE('',(#32),#585,.F.);
#615=ADVANCED_FACE('',(#33),#586,.F.);
#616=ADVANCED_FACE('',(#34),#587,.F.);
#617=ADVANCED_FACE('',(#35),#588,.F.);
#618=ADVANCED_FACE('',(#36),#589,.F.);
#619=ADVANCED_FACE('',(#37),#590,.F.);
#620=ADVANCED_FACE('',(#38),#591,.F.);
#621=ADVANCED_FACE('',(#39),#592,.F.);
#622=ADVANCED_FACE('',(#40),#593,.F.);
#623=ADVANCED_FACE('',(#41),#594,.T.);
#624=ADVANCED_FACE('',(#42),#28,.F.);
#625=ADVANCED_FACE('',(#43),#29,.T.);
#626=ADVANCED_FACE('',(#44),#595,.T.);
#627=ADVANCED_FACE('',(#45),#596,.F.);
#628=ADVANCED_FACE('',(#46,#15),#597,.F.);
#629=ADVANCED_FACE('',(#47),#598,.T.);
#630=ADVANCED_FACE('',(#48),#30,.F.);
#631=ADVANCED_FACE('',(#49),#599,.T.);
#632=ADVANCED_FACE('',(#50),#31,.T.);
#633=ADVANCED_FACE('',(#51),#600,.F.);
#634=ADVANCED_FACE('',(#52),#601,.F.);
#635=ADVANCED_FACE('',(#53),#602,.F.);
#636=ADVANCED_FACE('',(#54,#16,#17),#603,.F.);
#637=ADVANCED_FACE('',(#55),#604,.F.);
#638=ADVANCED_FACE('',(#56),#605,.F.);
#639=ADVANCED_FACE('',(#57),#606,.T.);
#640=ADVANCED_FACE('',(#58),#607,.T.);
#641=ADVANCED_FACE('',(#59),#608,.T.);
#642=ADVANCED_FACE('',(#60),#609,.F.);
#643=ADVANCED_FACE('',(#61),#610,.T.);
#644=ADVANCED_FACE('',(#62),#611,.T.);
#645=ADVANCED_FACE('',(#63),#612,.T.);
#646=ADVANCED_FACE('',(#64,#18,#19),#613,.T.);
#647=CLOSED_SHELL('',(#614,#615,#616,#617,#618,#619,#620,#621,#622,#623,
#624,#625,#626,#627,#628,#629,#630,#631,#632,#633,#634,#635,#636,#637,#638,
#639,#640,#641,#642,#643,#644,#645,#646));
#648=AXIS2_PLACEMENT_3D('',#854,#690,#691);
#649=AXIS2_PLACEMENT_3D('',#855,#692,#693);
#650=AXIS2_PLACEMENT_3D('',#864,#698,#699);
#651=AXIS2_PLACEMENT_3D('',#870,#703,#704);
#652=AXIS2_PLACEMENT_3D('',#876,#708,#709);
#653=AXIS2_PLACEMENT_3D('',#879,#712,#713);
#654=AXIS2_PLACEMENT_3D('',#888,#718,#719);
#655=AXIS2_PLACEMENT_3D('',#897,#724,#725);
#656=AXIS2_PLACEMENT_3D('',#902,#729,#730);
#657=AXIS2_PLACEMENT_3D('',#906,#733,#734);
#658=AXIS2_PLACEMENT_3D('',#909,#737,#738);
#659=AXIS2_PLACEMENT_3D('',#918,#743,#744);
#660=AXIS2_PLACEMENT_3D('',#920,#745,#746);
#661=AXIS2_PLACEMENT_3D('',#923,#748,#749);
#662=AXIS2_PLACEMENT_3D('',#924,#750,#751);
#663=AXIS2_PLACEMENT_3D('',#926,#752,#753);
#664=AXIS2_PLACEMENT_3D('',#928,#754,#755);
#665=AXIS2_PLACEMENT_3D('',#930,#757,#758);
#666=AXIS2_PLACEMENT_3D('',#936,#762,#763);
#667=AXIS2_PLACEMENT_3D('',#942,#767,#768);
#668=AXIS2_PLACEMENT_3D('',#950,#772,#773);
#669=AXIS2_PLACEMENT_3D('',#959,#779,#780);
#670=AXIS2_PLACEMENT_3D('',#965,#784,#785);
#671=AXIS2_PLACEMENT_3D('',#967,#786,#787);
#672=AXIS2_PLACEMENT_3D('',#970,#789,#790);
#673=AXIS2_PLACEMENT_3D('',#971,#791,#792);
#674=AXIS2_PLACEMENT_3D('',#977,#796,#797);
#675=AXIS2_PLACEMENT_3D('',#978,#798,#799);
#676=AXIS2_PLACEMENT_3D('',#979,#800,#801);
#677=AXIS2_PLACEMENT_3D('',#983,#804,#805);
#678=AXIS2_PLACEMENT_3D('',#984,#806,#807);
#679=AXIS2_PLACEMENT_3D('',#988,#810,#811);
#680=AXIS2_PLACEMENT_3D('',#1001,#819,#820);
#681=AXIS2_PLACEMENT_3D('',#1002,#821,#822);
#682=AXIS2_PLACEMENT_3D('',#1003,#823,#824);
#683=AXIS2_PLACEMENT_3D('',#1012,#829,#830);
#684=AXIS2_PLACEMENT_3D('',#1018,#834,#835);
#685=AXIS2_PLACEMENT_3D('',#1021,#838,#839);
#686=AXIS2_PLACEMENT_3D('',#1023,#841,#842);
#687=AXIS2_PLACEMENT_3D('',#1027,#845,#846);
#688=AXIS2_PLACEMENT_3D('',#1031,#849,#850);
#689=AXIS2_PLACEMENT_3D('',#1033,#852,#853);
#690=DIRECTION('axis',(0.,0.,1.));
#691=DIRECTION('refdir',(1.,0.,0.));
#692=DIRECTION('center_axis',(-1.,0.,0.));
#693=DIRECTION('ref_axis',(0.,1.,0.));
#694=DIRECTION('',(0.,1.,0.));
#695=DIRECTION('',(0.,0.,-1.));
#696=DIRECTION('',(0.,-1.,0.));
#697=DIRECTION('',(0.,0.,-1.));
#698=DIRECTION('center_axis',(0.,-1.,0.));
#699=DIRECTION('ref_axis',(-1.,0.,0.));
#700=DIRECTION('',(-1.,0.,0.));
#701=DIRECTION('',(0.,0.,-1.));
#702=DIRECTION('',(1.,0.,0.));
#703=DIRECTION('center_axis',(1.,0.,0.));
#704=DIRECTION('ref_axis',(0.,-1.,0.));
#705=DIRECTION('',(0.,-1.,0.));
#706=DIRECTION('',(0.,0.,-1.));
#707=DIRECTION('',(0.,1.,0.));
#708=DIRECTION('center_axis',(0.,1.,0.));
#709=DIRECTION('ref_axis',(1.,0.,0.));
#710=DIRECTION('',(1.,0.,0.));
#711=DIRECTION('',(-1.,0.,0.));
#712=DIRECTION('center_axis',(0.,0.,-1.));
#713=DIRECTION('ref_axis',(-1.,0.,0.));
#714=DIRECTION('',(0.,1.,0.));
#715=DIRECTION('',(1.,0.,0.));
#716=DIRECTION('',(0.,1.,0.));
#717=DIRECTION('',(-1.,0.,0.));
#718=DIRECTION('center_axis',(1.,0.,0.));
#719=DIRECTION('ref_axis',(0.,-1.,0.));
#720=DIRECTION('',(0.,-1.,0.));
#721=DIRECTION('',(0.,0.,-1.));
#722=DIRECTION('',(0.,1.,0.));
#723=DIRECTION('',(0.,0.,-1.));
#724=DIRECTION('center_axis',(0.,1.,0.));
#725=DIRECTION('ref_axis',(1.,0.,0.));
#726=DIRECTION('',(1.,0.,0.));
#727=DIRECTION('',(0.,0.,-1.));
#728=DIRECTION('',(-1.,0.,0.));
#729=DIRECTION('center_axis',(-1.,0.,0.));
#730=DIRECTION('ref_axis',(0.,1.,0.));
#731=DIRECTION('',(0.,1.,0.));
#732=DIRECTION('',(0.,0.,-1.));
#733=DIRECTION('center_axis',(0.,-1.,0.));
#734=DIRECTION('ref_axis',(-1.,0.,0.));
#735=DIRECTION('',(-1.,0.,0.));
#736=DIRECTION('',(1.,0.,0.));
#737=DIRECTION('center_axis',(1.,-2.16307325507703E-8,0.));
#738=DIRECTION('ref_axis',(-2.16307325507703E-8,-1.,0.));
#739=DIRECTION('',(2.16307325507703E-8,1.,0.));
#740=DIRECTION('',(0.,0.,1.));
#741=DIRECTION('',(-2.16307325507703E-8,-1.,0.));
#742=DIRECTION('',(0.,0.,-1.));
#743=DIRECTION('center_axis',(0.,0.,-1.));
#744=DIRECTION('ref_axis',(-1.,0.,0.));
#745=DIRECTION('center_axis',(0.,0.,1.));
#746=DIRECTION('ref_axis',(-1.,0.,0.));
#747=DIRECTION('',(0.,0.,1.));
#748=DIRECTION('center_axis',(0.,0.,-1.));
#749=DIRECTION('ref_axis',(-1.,0.,0.));
#750=DIRECTION('center_axis',(0.,0.,-1.));
#751=DIRECTION('ref_axis',(5.57948170488282E-10,1.,0.));
#752=DIRECTION('center_axis',(0.,0.,1.));
#753=DIRECTION('ref_axis',(1.,-2.1631372248976E-8,0.));
#754=DIRECTION('center_axis',(0.,0.,-1.));
#755=DIRECTION('ref_axis',(1.,-2.1631372248976E-8,0.));
#756=DIRECTION('',(0.,0.,-1.));
#757=DIRECTION('center_axis',(-1.,-2.16306867093042E-8,0.));
#758=DIRECTION('ref_axis',(-2.16306867093042E-8,1.,0.));
#759=DIRECTION('',(2.16306867093042E-8,-1.,0.));
#760=DIRECTION('',(-2.16306867093042E-8,1.,0.));
#761=DIRECTION('',(0.,0.,-1.));
#762=DIRECTION('center_axis',(0.,-1.,0.));
#763=DIRECTION('ref_axis',(1.,0.,0.));
#764=DIRECTION('',(1.,0.,0.));
#765=DIRECTION('',(0.,0.,1.));
#766=DIRECTION('',(-1.,0.,0.));
#767=DIRECTION('center_axis',(0.,0.,1.));
#768=DIRECTION('ref_axis',(1.,0.,0.));
#769=DIRECTION('',(0.,1.,0.));
#770=DIRECTION('',(-1.,0.,0.));
#771=DIRECTION('',(0.,-1.,0.));
#772=DIRECTION('center_axis',(0.,0.,1.));
#773=DIRECTION('ref_axis',(-0.997639795560208,0.0686646802554709,0.));
#774=DIRECTION('',(-0.00252048638820693,0.999996823569139,0.));
#775=DIRECTION('',(-1.,0.,0.));
#776=DIRECTION('',(0.,1.,0.));
#777=DIRECTION('',(-1.,0.,0.));
#778=DIRECTION('',(0.,1.,0.));
#779=DIRECTION('center_axis',(-1.,0.,0.));
#780=DIRECTION('ref_axis',(0.,1.,0.));
#781=DIRECTION('',(0.,0.,1.));
#782=DIRECTION('',(0.,1.,0.));
#783=DIRECTION('',(0.,0.,-1.));
#784=DIRECTION('center_axis',(0.,0.,-1.));
#785=DIRECTION('ref_axis',(-1.,0.,0.));
#786=DIRECTION('center_axis',(0.,0.,1.));
#787=DIRECTION('ref_axis',(-1.,0.,0.));
#788=DIRECTION('',(0.,0.,1.));
#789=DIRECTION('center_axis',(0.,0.,-1.));
#790=DIRECTION('ref_axis',(-1.,0.,0.));
#791=DIRECTION('center_axis',(0.999996823569139,0.00252048638820693,0.));
#792=DIRECTION('ref_axis',(0.00252048638820693,-0.999996823569139,0.));
#793=DIRECTION('',(0.,0.,-1.));
#794=DIRECTION('',(0.00252048638820693,-0.999996823569139,0.));
#795=DIRECTION('',(0.,0.,-1.));
#796=DIRECTION('center_axis',(0.,0.,-1.));
#797=DIRECTION('ref_axis',(0.0356120889977565,-0.999365688382994,0.));
#798=DIRECTION('center_axis',(0.,0.,-1.));
#799=DIRECTION('ref_axis',(-0.997639795560208,0.0686646802554709,0.));
#800=DIRECTION('center_axis',(0.,1.,0.));
#801=DIRECTION('ref_axis',(-1.,0.,0.));
#802=DIRECTION('',(-1.,0.,0.));
#803=DIRECTION('',(0.,0.,-1.));
#804=DIRECTION('center_axis',(0.,0.,1.));
#805=DIRECTION('ref_axis',(1.,0.,0.));
#806=DIRECTION('center_axis',(-1.,0.,0.));
#807=DIRECTION('ref_axis',(0.,0.,1.));
#808=DIRECTION('',(0.,0.,-1.));
#809=DIRECTION('',(0.,-1.,0.));
#810=DIRECTION('center_axis',(0.,0.,1.));
#811=DIRECTION('ref_axis',(-1.,0.,0.));
#812=DIRECTION('',(1.,0.,0.));
#813=DIRECTION('',(0.,-1.,0.));
#814=DIRECTION('',(-1.,0.,0.));
#815=DIRECTION('',(0.,1.,0.));
#816=DIRECTION('',(1.,0.,0.));
#817=DIRECTION('',(0.,-1.,0.));
#818=DIRECTION('',(-1.,0.,0.));
#819=DIRECTION('center_axis',(0.,1.,0.));
#820=DIRECTION('ref_axis',(-1.,0.,0.));
#821=DIRECTION('center_axis',(0.,0.,1.));
#822=DIRECTION('ref_axis',(1.,0.,0.));
#823=DIRECTION('center_axis',(0.,0.,-1.));
#824=DIRECTION('ref_axis',(-1.,0.,0.));
#825=DIRECTION('',(0.,-1.,0.));
#826=DIRECTION('',(-1.,0.,0.));
#827=DIRECTION('',(0.,1.,0.));
#828=DIRECTION('',(1.,0.,0.));
#829=DIRECTION('center_axis',(-1.,0.,0.));
#830=DIRECTION('ref_axis',(0.,-1.,0.));
#831=DIRECTION('',(0.,0.,1.));
#832=DIRECTION('',(0.,-1.,0.));
#833=DIRECTION('',(0.,0.,1.));
#834=DIRECTION('center_axis',(1.,0.,0.));
#835=DIRECTION('ref_axis',(0.,1.,0.));
#836=DIRECTION('',(0.,0.,-1.));
#837=DIRECTION('',(0.,0.,1.));
#838=DIRECTION('center_axis',(0.,-1.,0.));
#839=DIRECTION('ref_axis',(1.,0.,0.));
#840=DIRECTION('',(0.,0.,1.));
#841=DIRECTION('center_axis',(0.,1.,0.));
#842=DIRECTION('ref_axis',(-1.,0.,0.));
#843=DIRECTION('',(-1.,0.,0.));
#844=DIRECTION('',(0.,0.,1.));
#845=DIRECTION('center_axis',(1.,0.,0.));
#846=DIRECTION('ref_axis',(0.,1.,0.));
#847=DIRECTION('',(0.,1.,0.));
#848=DIRECTION('',(0.,0.,1.));
#849=DIRECTION('center_axis',(0.,-1.,0.));
#850=DIRECTION('ref_axis',(1.,0.,0.));
#851=DIRECTION('',(1.,0.,0.));
#852=DIRECTION('center_axis',(0.,0.,1.));
#853=DIRECTION('ref_axis',(1.,0.,0.));
#854=CARTESIAN_POINT('',(0.,0.,0.));
#855=CARTESIAN_POINT('Origin',(117.212715266733,-90.2872878252584,11.01));
#856=CARTESIAN_POINT('',(117.212715266733,-90.2872878252584,11.01));
#857=CARTESIAN_POINT('',(117.212715266733,-83.7127147675437,11.01));
#858=CARTESIAN_POINT('',(117.212715266733,-88.5936439126293,11.01));
#859=CARTESIAN_POINT('',(117.212715266733,-90.2872878252584,9.01));
#860=CARTESIAN_POINT('',(117.212715266733,-90.2872878252584,11.01));
#861=CARTESIAN_POINT('',(117.212715266733,-83.7127147675437,9.01));
#862=CARTESIAN_POINT('',(117.212715266733,-88.5936439126293,9.01));
#863=CARTESIAN_POINT('',(117.212715266733,-83.7127147675437,11.01));
#864=CARTESIAN_POINT('Origin',(122.787288309546,-90.2872878252584,11.01));
#865=CARTESIAN_POINT('',(122.787288309546,-90.2872878252584,11.01));
#866=CARTESIAN_POINT('',(124.168644154771,-90.2872878252584,11.01));
#867=CARTESIAN_POINT('',(122.787288309546,-90.2872878252584,9.01));
#868=CARTESIAN_POINT('',(122.787288309546,-90.2872878252584,11.01));
#869=CARTESIAN_POINT('',(124.168644154771,-90.2872878252584,9.01));
#870=CARTESIAN_POINT('Origin',(122.787288309546,-83.7127147675437,11.01));
#871=CARTESIAN_POINT('',(122.787288309546,-83.7127147675437,11.01));
#872=CARTESIAN_POINT('',(122.787288309546,-85.3063573837719,11.01));
#873=CARTESIAN_POINT('',(122.787288309546,-83.7127147675437,9.01));
#874=CARTESIAN_POINT('',(122.787288309546,-83.7127147675437,11.01));
#875=CARTESIAN_POINT('',(122.787288309546,-85.3063573837719,9.01));
#876=CARTESIAN_POINT('Origin',(117.212715266733,-83.7127147675437,11.01));
#877=CARTESIAN_POINT('',(121.381357633364,-83.7127147675437,11.01));
#878=CARTESIAN_POINT('',(121.381357633364,-83.7127147675437,9.01));
#879=CARTESIAN_POINT('Origin',(111.907772286983,-87.3466122091224,9.01));
#880=CARTESIAN_POINT('',(110.549999999995,-94.4182795113718,9.01));
#881=CARTESIAN_POINT('',(110.549999999995,-80.2749449068729,9.01));
#882=CARTESIAN_POINT('',(110.549999999995,-80.5250000000002,9.01));
#883=CARTESIAN_POINT('',(110.515537786853,-80.2749449068729,9.01));
#884=CARTESIAN_POINT('',(110.515537786853,-80.2749449068729,9.01));
#885=CARTESIAN_POINT('',(110.515537786853,-94.4182795113718,9.01));
#886=CARTESIAN_POINT('',(110.515537786853,-94.4182795113718,9.01));
#887=CARTESIAN_POINT('',(113.300006787113,-94.4182795113718,9.01));
#888=CARTESIAN_POINT('Origin',(113.300006787113,-80.2749449068729,11.01));
#889=CARTESIAN_POINT('',(113.300006787113,-80.2749449068729,11.01));
#890=CARTESIAN_POINT('',(113.300006787113,-94.4182795113718,11.01));
#891=CARTESIAN_POINT('',(113.300006787113,-83.5874724534365,11.01));
#892=CARTESIAN_POINT('',(113.300006787113,-80.2749449068729,9.01));
#893=CARTESIAN_POINT('',(113.300006787113,-80.2749449068729,11.01));
#894=CARTESIAN_POINT('',(113.300006787113,-94.4182795113718,9.01));
#895=CARTESIAN_POINT('',(113.300006787113,-83.5874724534365,9.01));
#896=CARTESIAN_POINT('',(113.300006787113,-94.4182795113718,11.01));
#897=CARTESIAN_POINT('Origin',(110.515537786853,-80.2749449068729,11.01));
#898=CARTESIAN_POINT('',(110.515537786853,-80.2749449068729,11.01));
#899=CARTESIAN_POINT('',(118.032768893424,-80.2749449068729,11.01));
#900=CARTESIAN_POINT('',(110.515537786853,-80.2749449068729,11.01));
#901=CARTESIAN_POINT('',(118.032768893424,-80.2749449068729,9.01));
#902=CARTESIAN_POINT('Origin',(110.515537786853,-94.4182795113718,11.01));
#903=CARTESIAN_POINT('',(110.515537786853,-94.4182795113718,11.01));
#904=CARTESIAN_POINT('',(110.515537786853,-90.659139755686,11.01));
#905=CARTESIAN_POINT('',(110.515537786853,-94.4182795113718,11.01));
#906=CARTESIAN_POINT('Origin',(113.300006787113,-94.4182795113718,11.01));
#907=CARTESIAN_POINT('',(119.425003393554,-94.4182795113718,11.01));
#908=CARTESIAN_POINT('',(119.425003393554,-94.4182795113718,9.01));
#909=CARTESIAN_POINT('Origin',(128.499997161329,-96.4499978766216,11.01));
#910=CARTESIAN_POINT('',(128.499997135372,-97.6500000000002,9.01));
#911=CARTESIAN_POINT('',(128.499997161329,-96.4499978766216,9.01));
#912=CARTESIAN_POINT('',(128.499997264616,-91.6749989702162,9.01));
#913=CARTESIAN_POINT('',(128.499997135372,-97.6500000000002,1.51));
#914=CARTESIAN_POINT('',(128.499997135372,-97.6500000000002,6.26));
#915=CARTESIAN_POINT('',(128.499997161329,-96.4499978766216,1.51));
#916=CARTESIAN_POINT('',(128.499997127801,-97.9999978095293,1.51));
#917=CARTESIAN_POINT('',(128.499997161329,-96.4499978766216,11.01));
#918=CARTESIAN_POINT('Origin',(126.999997161329,-96.4499978441745,11.01));
#919=CARTESIAN_POINT('',(127.999997161329,-96.4499978441745,1.51));
#920=CARTESIAN_POINT('Origin',(126.999997161329,-96.4499978441745,1.51));
#921=CARTESIAN_POINT('',(127.999997161329,-96.4499978441745,9.01));
#922=CARTESIAN_POINT('',(127.999997161329,-96.4499978441745,11.01));
#923=CARTESIAN_POINT('Origin',(126.999997161329,-96.4499978441745,9.01));
#924=CARTESIAN_POINT('Origin',(126.999997161329,-96.4499978441745,11.01));
#925=CARTESIAN_POINT('',(125.499997161329,-96.4499978749477,9.01));
#926=CARTESIAN_POINT('Origin',(126.999997161329,-96.4499978441745,9.01));
#927=CARTESIAN_POINT('',(125.499997161329,-96.4499978749477,1.51));
#928=CARTESIAN_POINT('Origin',(126.999997161329,-96.4499978441745,1.51));
#929=CARTESIAN_POINT('',(125.499997161329,-96.4499978749477,11.01));
#930=CARTESIAN_POINT('Origin',(125.499997194856,-97.9999978095293,11.01));
#931=CARTESIAN_POINT('',(125.499997187286,-97.6500000000002,9.01));
#932=CARTESIAN_POINT('',(125.499997074806,-92.4499989053055,9.01));
#933=CARTESIAN_POINT('',(125.499997187286,-97.6500000000002,1.51));
#934=CARTESIAN_POINT('',(125.499997194856,-97.9999978095293,1.51));
#935=CARTESIAN_POINT('',(125.499997187286,-97.6500000000002,6.26));
#936=CARTESIAN_POINT('Origin',(109.549999999995,-97.6500000000002,1.51));
#937=CARTESIAN_POINT('',(110.549999999995,-97.6500000000002,1.51));
#938=CARTESIAN_POINT('',(141.549999999995,-97.6500000000002,1.51));
#939=CARTESIAN_POINT('',(110.549999999995,-97.6500000000002,9.01));
#940=CARTESIAN_POINT('',(110.549999999995,-97.6500000000002,1.51));
#941=CARTESIAN_POINT('',(111.549999999995,-97.6500000000002,9.01));
#942=CARTESIAN_POINT('Origin',(125.549999999995,-86.9000000000002,9.01));
#943=CARTESIAN_POINT('',(110.549999999995,-76.1500000000002,9.01));
#944=CARTESIAN_POINT('',(110.549999999995,-80.5250000000002,9.01));
#945=CARTESIAN_POINT('',(125.503542199107,-76.1500000000002,9.01));
#946=CARTESIAN_POINT('',(141.549999999995,-76.1500000000002,9.01));
#947=CARTESIAN_POINT('',(125.503542199107,-77.5029981774585,9.01));
#948=CARTESIAN_POINT('',(125.503542199107,-82.2014990887293,9.01));
#949=CARTESIAN_POINT('',(128.499997127801,-77.3962204274928,9.01));
#950=CARTESIAN_POINT('Origin',(127.000001892447,-77.4000011570752,9.01));
#951=CARTESIAN_POINT('',(128.4968560362,-76.1500000000002,9.01));
#952=CARTESIAN_POINT('',(128.509618778281,-81.2135867748017,9.01));
#953=CARTESIAN_POINT('',(141.549999999995,-76.1500000000002,9.01));
#954=CARTESIAN_POINT('',(141.549999999995,-76.1500000000002,9.01));
#955=CARTESIAN_POINT('',(141.549999999995,-97.6500000000002,9.01));
#956=CARTESIAN_POINT('',(141.549999999995,-98.6500000000002,9.01));
#957=CARTESIAN_POINT('',(111.549999999995,-97.6500000000002,9.01));
#958=CARTESIAN_POINT('',(110.549999999995,-80.5250000000002,9.01));
#959=CARTESIAN_POINT('Origin',(125.503542199107,-77.5029981774585,11.01));
#960=CARTESIAN_POINT('',(125.503542199107,-76.1500000000002,1.51));
#961=CARTESIAN_POINT('',(125.503542199107,-76.1500000000002,6.26));
#962=CARTESIAN_POINT('',(125.503542199107,-77.5029981774585,1.51));
#963=CARTESIAN_POINT('',(125.503542199107,-77.5029981774585,1.51));
#964=CARTESIAN_POINT('',(125.503542199107,-77.5029981774585,11.01));
#965=CARTESIAN_POINT('Origin',(127.000001892447,-77.4000011570752,11.01));
#966=CARTESIAN_POINT('',(128.000001892447,-77.4000011570752,1.51));
#967=CARTESIAN_POINT('Origin',(127.000001892447,-77.4000011570752,1.51));
#968=CARTESIAN_POINT('',(128.000001892447,-77.4000011570752,9.01));
#969=CARTESIAN_POINT('',(128.000001892447,-77.4000011570752,11.01));
#970=CARTESIAN_POINT('Origin',(127.000001892447,-77.4000011570752,9.01));
#971=CARTESIAN_POINT('Origin',(128.495305098694,-75.5346693296927,11.01));
#972=CARTESIAN_POINT('',(128.499997127801,-77.3962204274928,1.51));
#973=CARTESIAN_POINT('',(128.499997127801,-77.3962204274928,11.01));
#974=CARTESIAN_POINT('',(128.4968560362,-76.1500000000002,1.51));
#975=CARTESIAN_POINT('',(128.495305098694,-75.5346693296927,1.51));
#976=CARTESIAN_POINT('',(128.4968560362,-76.1500000000002,6.26));
#977=CARTESIAN_POINT('Origin',(127.000001892447,-77.4000011570752,11.01));
#978=CARTESIAN_POINT('Origin',(127.000001892447,-77.4000011570752,1.51));
#979=CARTESIAN_POINT('Origin',(141.549999999995,-76.1500000000002,1.51));
#980=CARTESIAN_POINT('',(141.549999999995,-76.1500000000002,1.51));
#981=CARTESIAN_POINT('',(133.549999999995,-76.1500000000002,1.51));
#982=CARTESIAN_POINT('',(141.549999999995,-76.1500000000002,5.26));
#983=CARTESIAN_POINT('Origin',(125.549999999995,-86.9000000000002,9.01));
#984=CARTESIAN_POINT('Origin',(110.549999999995,-74.1500000000002,1.51));
#985=CARTESIAN_POINT('',(110.549999999995,-76.1500000000002,1.51));
#986=CARTESIAN_POINT('',(110.549999999995,-76.1500000000002,1.51));
#987=CARTESIAN_POINT('',(110.549999999995,-80.5250000000002,1.51));
#988=CARTESIAN_POINT('Origin',(125.549999999995,-86.9000000000002,1.51));
#989=CARTESIAN_POINT('',(141.549999999995,-97.6500000000002,1.51));
#990=CARTESIAN_POINT('',(141.549999999995,-97.6500000000002,1.51));
#991=CARTESIAN_POINT('',(141.549999999995,-99.6500000000002,1.51));
#992=CARTESIAN_POINT('',(141.549999999995,-74.1500000000002,1.51));
#993=CARTESIAN_POINT('',(109.549999999995,-99.6500000000002,1.51));
#994=CARTESIAN_POINT('',(141.549999999995,-99.6500000000002,1.51));
#995=CARTESIAN_POINT('',(109.549999999995,-74.1500000000002,1.51));
#996=CARTESIAN_POINT('',(109.549999999995,-99.6500000000002,1.51));
#997=CARTESIAN_POINT('',(141.549999999995,-74.1500000000002,1.51));
#998=CARTESIAN_POINT('',(109.549999999995,-74.1500000000002,1.51));
#999=CARTESIAN_POINT('',(141.549999999995,-74.1500000000002,1.51));
#1000=CARTESIAN_POINT('',(133.549999999995,-76.1500000000002,1.51));
#1001=CARTESIAN_POINT('Origin',(141.549999999995,-76.1500000000002,1.51));
#1002=CARTESIAN_POINT('Origin',(125.549999999995,-86.9000000000002,9.01));
#1003=CARTESIAN_POINT('Origin',(108.299999999995,-86.9000000000002,0.01));
#1004=CARTESIAN_POINT('',(109.549999999995,-74.1500000000002,0.01));
#1005=CARTESIAN_POINT('',(109.549999999995,-99.6500000000002,0.01));
#1006=CARTESIAN_POINT('',(109.549999999995,-99.6500000000002,0.01));
#1007=CARTESIAN_POINT('',(107.049999999995,-99.6500000000002,0.01));
#1008=CARTESIAN_POINT('',(107.049999999995,-99.6500000000002,0.01));
#1009=CARTESIAN_POINT('',(107.049999999995,-74.1500000000002,0.01));
#1010=CARTESIAN_POINT('',(107.049999999995,-74.1500000000002,0.01));
#1011=CARTESIAN_POINT('',(109.549999999995,-74.1500000000002,0.01));
#1012=CARTESIAN_POINT('Origin',(107.049999999995,-74.1500000000002,1.51));
#1013=CARTESIAN_POINT('',(107.049999999995,-99.6500000000002,11.01));
#1014=CARTESIAN_POINT('',(107.049999999995,-99.6500000000002,1.51));
#1015=CARTESIAN_POINT('',(107.049999999995,-74.1500000000002,11.01));
#1016=CARTESIAN_POINT('',(107.049999999995,-74.1500000000002,11.01));
#1017=CARTESIAN_POINT('',(107.049999999995,-74.1500000000002,1.51));
#1018=CARTESIAN_POINT('Origin',(109.549999999995,-99.6500000000002,1.51));
#1019=CARTESIAN_POINT('',(109.549999999995,-99.6500000000002,1.51));
#1020=CARTESIAN_POINT('',(109.549999999995,-74.1500000000002,1.51));
#1021=CARTESIAN_POINT('Origin',(109.549999999995,-97.6500000000002,1.51));
#1022=CARTESIAN_POINT('',(141.549999999995,-97.6500000000002,1.51));
#1023=CARTESIAN_POINT('Origin',(141.549999999995,-74.1500000000002,1.51));
#1024=CARTESIAN_POINT('',(141.549999999995,-74.1500000000002,11.01));
#1025=CARTESIAN_POINT('',(109.549999999995,-74.1500000000002,11.01));
#1026=CARTESIAN_POINT('',(141.549999999995,-74.1500000000002,1.51));
#1027=CARTESIAN_POINT('Origin',(141.549999999995,-99.6500000000002,1.51));
#1028=CARTESIAN_POINT('',(141.549999999995,-99.6500000000002,11.01));
#1029=CARTESIAN_POINT('',(141.549999999995,-74.1500000000002,11.01));
#1030=CARTESIAN_POINT('',(141.549999999995,-99.6500000000002,1.51));
#1031=CARTESIAN_POINT('Origin',(109.549999999995,-99.6500000000002,1.51));
#1032=CARTESIAN_POINT('',(107.049999999995,-99.6500000000002,11.01));
#1033=CARTESIAN_POINT('Origin',(125.549999999995,-86.9000000000002,11.01));
#1034=UNCERTAINTY_MEASURE_WITH_UNIT(LENGTH_MEASURE(0.01),#1038,
'DISTANCE_ACCURACY_VALUE',
'Maximum model space distance between geometric entities at asserted c
onnectivities');
#1035=UNCERTAINTY_MEASURE_WITH_UNIT(LENGTH_MEASURE(0.01),#1038,
'DISTANCE_ACCURACY_VALUE',
'Maximum model space distance between geometric entities at asserted c
onnectivities');
#1036=(
GEOMETRIC_REPRESENTATION_CONTEXT(3)
GLOBAL_UNCERTAINTY_ASSIGNED_CONTEXT((#1034))
GLOBAL_UNIT_ASSIGNED_CONTEXT((#1038,#1039,#1040))
REPRESENTATION_CONTEXT('','3D')
);
#1037=(
GEOMETRIC_REPRESENTATION_CONTEXT(3)
GLOBAL_UNCERTAINTY_ASSIGNED_CONTEXT((#1035))
GLOBAL_UNIT_ASSIGNED_CONTEXT((#1038,#1039,#1040))
REPRESENTATION_CONTEXT('','3D')
);
#1038=(
LENGTH_UNIT()
NAMED_UNIT(*)
SI_UNIT(.MILLI.,.METRE.)
);
#1039=(
NAMED_UNIT(*)
PLANE_ANGLE_UNIT()
SI_UNIT($,.RADIAN.)
);
#1040=(
NAMED_UNIT(*)
SI_UNIT($,.STERADIAN.)
SOLID_ANGLE_UNIT()
);
#1041=SHAPE_DEFINITION_REPRESENTATION(#1042,#1043);
#1042=PRODUCT_DEFINITION_SHAPE('',$,#1045);
#1043=SHAPE_REPRESENTATION('',(#648),#1036);
#1044=PRODUCT_DEFINITION_CONTEXT('part definition',#1049,'design');
#1045=PRODUCT_DEFINITION('(Unsaved)','(Unsaved)',#1046,#1044);
#1046=PRODUCT_DEFINITION_FORMATION('',$,#1051);
#1047=PRODUCT_RELATED_PRODUCT_CATEGORY('(Unsaved)','(Unsaved)',(#1051));
#1048=APPLICATION_PROTOCOL_DEFINITION('international standard',
'automotive_design',2009,#1049);
#1049=APPLICATION_CONTEXT(
'Core Data for Automotive Mechanical Design Process');
#1050=PRODUCT_CONTEXT('part definition',#1049,'mechanical');
#1051=PRODUCT('(Unsaved)','(Unsaved)',$,(#1050));
#1052=PRESENTATION_STYLE_ASSIGNMENT((#1053));
#1053=SURFACE_STYLE_USAGE(.BOTH.,#1054);
#1054=SURFACE_SIDE_STYLE('',(#1055));
#1055=SURFACE_STYLE_FILL_AREA(#1056);
#1056=FILL_AREA_STYLE('Steel - Satin',(#1057));
#1057=FILL_AREA_STYLE_COLOUR('Steel - Satin',#1058);
#1058=COLOUR_RGB('Steel - Satin',0.627450980392157,0.627450980392157,0.627450980392157);
ENDSEC;
END-ISO-10303-21;
